<svg width="128" height="50" viewBox="0 0 128 50" fill="none" xmlns="http://www.w3.org/2000/svg">
<path d="M29.7256 19.5098L21.4902 11.2744C18.4577 8.24186 13.5423 8.24186 10.5098 11.2744L2.27441 19.5098C-0.758135 22.5423 -0.758135 27.4577 2.27441 30.4902L10.5098 38.7256C13.5423 41.7581 18.4577 41.7581 21.4902 38.7256L29.7256 30.4902C32.7581 27.4577 32.7581 22.5423 29.7256 19.5098ZM26.9805 27.7451L18.7451 35.9805C17.2296 37.496 14.7704 37.496 13.2549 35.9805L5.01953 27.7451C3.50403 26.2296 3.50403 23.7704 5.01953 22.2549L13.2549 14.0195C14.7704 12.504 17.2296 12.504 18.7451 14.0195L26.9805 22.2549C28.496 23.7704 28.496 26.2296 26.9805 27.7451Z" fill="url(#paint0_linear_174_6962)"/>
<path d="M47.008 23H45.248V11.512H49.536C52.176 11.512 53.76 12.808 53.76 15.096C53.76 16.744 52.72 18.008 50.976 18.424L54.096 23H51.984L49.12 18.68H47.008V23ZM47.008 12.984V17.208H49.424C51.056 17.208 51.984 16.488 51.984 15.096C51.984 13.72 51.056 12.984 49.424 12.984H47.008ZM60.8398 23V21.688C60.3117 22.632 59.3678 23.16 58.1198 23.16C56.3597 23.16 55.2077 22.152 55.2077 20.6C55.2077 18.936 56.5357 18.072 59.0637 18.072C59.5598 18.072 59.9598 18.088 60.6477 18.168V17.544C60.6477 16.328 59.9918 15.64 58.8717 15.64C57.6877 15.64 56.9677 16.344 56.9197 17.528H55.4477C55.5277 15.624 56.8877 14.36 58.8717 14.36C60.9678 14.36 62.1838 15.544 62.1838 17.56V23H60.8398ZM56.7437 20.552C56.7437 21.432 57.3997 22.008 58.4397 22.008C59.7997 22.008 60.6477 21.16 60.6477 19.864V19.176C60.0237 19.096 59.5757 19.08 59.1597 19.08C57.5437 19.08 56.7437 19.56 56.7437 20.552ZM66.5524 12.552C66.5524 13.16 66.0724 13.624 65.3844 13.624C64.6964 13.624 64.2004 13.16 64.2004 12.552C64.2004 11.928 64.6964 11.48 65.3844 11.48C66.0724 11.48 66.5524 11.928 66.5524 12.552ZM66.2004 23H64.5844V14.52H66.2004V23ZM70.3157 23H68.6837V11.512H70.3157V23ZM81.7585 23L78.1265 14.216V23H76.5105V11.512H78.6705L82.5265 20.84L86.3665 11.512H88.5425V23H86.9105V14.2L83.2625 23H81.7585ZM96.2741 23V21.688C95.7461 22.632 94.8021 23.16 93.5541 23.16C91.7941 23.16 90.6421 22.152 90.6421 20.6C90.6421 18.936 91.9701 18.072 94.4981 18.072C94.9941 18.072 95.3941 18.088 96.0821 18.168V17.544C96.0821 16.328 95.4261 15.64 94.3061 15.64C93.1221 15.64 92.4021 16.344 92.3541 17.528H90.8821C90.9621 15.624 92.3221 14.36 94.3061 14.36C96.4021 14.36 97.6181 15.544 97.6181 17.56V23H96.2741ZM92.1781 20.552C92.1781 21.432 92.8341 22.008 93.8741 22.008C95.2341 22.008 96.0821 21.16 96.0821 19.864V19.176C95.4581 19.096 95.0101 19.08 94.5941 19.08C92.9781 19.08 92.1781 19.56 92.1781 20.552ZM108.115 18.76C108.115 21.32 106.643 23.16 104.371 23.16C103.219 23.16 102.243 22.584 101.635 21.56V26.088H100.019V14.52H101.523V16.072C102.131 14.984 103.171 14.36 104.371 14.36C106.627 14.36 108.115 16.2 108.115 18.76ZM106.435 18.76C106.435 16.856 105.427 15.784 104.035 15.784C102.691 15.784 101.635 16.856 101.635 18.76C101.635 20.632 102.675 21.72 104.035 21.72C105.427 21.72 106.435 20.664 106.435 18.76Z" fill="white"/>
<path d="M46.19 38H45.18V33.56H44.01V32.7H45.18V32.31C45.18 31.29 45.73 30.73 46.73 30.73C47.03 30.73 47.27 30.78 47.47 30.86V31.68C47.31 31.61 47.13 31.59 46.95 31.59C46.47 31.59 46.19 31.81 46.19 32.32V32.7H47.67V33.56H46.19V38ZM49.6002 35.29V38H48.5902V32.7H49.5302V33.82C49.9002 33.09 50.7002 32.63 51.5702 32.63V33.68C50.4302 33.62 49.6002 34.12 49.6002 35.29ZM54.72 38.1C53.22 38.1 52.12 36.92 52.12 35.35C52.12 33.78 53.22 32.6 54.72 32.6C56.22 32.6 57.32 33.78 57.32 35.35C57.32 36.92 56.22 38.1 54.72 38.1ZM54.72 37.21C55.59 37.21 56.28 36.51 56.28 35.35C56.28 34.19 55.59 33.5 54.72 33.5C53.85 33.5 53.17 34.19 53.17 35.35C53.17 36.51 53.85 37.21 54.72 37.21ZM59.5096 38H58.4996V32.7H59.4396V33.58C59.7996 32.97 60.3696 32.6 61.0996 32.6C61.8796 32.6 62.4696 33 62.7096 33.7C63.0796 33.02 63.6896 32.6 64.4996 32.6C65.5896 32.6 66.2896 33.31 66.2896 34.57V38H65.2796V34.89C65.2796 34.01 64.8896 33.49 64.1496 33.49C63.4596 33.49 62.8996 34.07 62.8996 34.96V38H61.8896V34.89C61.8896 34.01 61.4996 33.49 60.7596 33.49C60.0596 33.49 59.5096 34.07 59.5096 34.96V38ZM75.0501 38L74.4001 36.22H71.3001L70.6401 38H69.5301L72.2801 30.82H73.4901L76.2201 38H75.0501ZM72.8601 32.02L71.6301 35.33H74.0701L72.8601 32.02ZM79.967 37.02V37.91C79.657 38.05 79.387 38.1 79.067 38.1C78.087 38.1 77.407 37.57 77.407 36.4V33.56H76.237V32.7H77.407V31.13H78.417V32.7H80.017V33.56H78.417V36.17C78.417 36.9 78.767 37.16 79.307 37.16C79.547 37.16 79.757 37.12 79.967 37.02ZM82.1509 38H81.1309V30.82H82.1509V38ZM86.9127 38V37.18C86.5827 37.77 85.9927 38.1 85.2127 38.1C84.1127 38.1 83.3927 37.47 83.3927 36.5C83.3927 35.46 84.2227 34.92 85.8027 34.92C86.1127 34.92 86.3627 34.93 86.7927 34.98V34.59C86.7927 33.83 86.3827 33.4 85.6827 33.4C84.9427 33.4 84.4927 33.84 84.4627 34.58H83.5427C83.5927 33.39 84.4427 32.6 85.6827 32.6C86.9927 32.6 87.7527 33.34 87.7527 34.6V38H86.9127ZM84.3527 36.47C84.3527 37.02 84.7627 37.38 85.4127 37.38C86.2627 37.38 86.7927 36.85 86.7927 36.04V35.61C86.4027 35.56 86.1227 35.55 85.8627 35.55C84.8527 35.55 84.3527 35.85 84.3527 36.47ZM90.2631 35.01V38H89.2531V32.7H90.1931V33.58C90.5531 32.99 91.1531 32.6 91.8831 32.6C92.9731 32.6 93.6931 33.3 93.6931 34.57V38H92.6831V34.91C92.6831 34 92.2831 33.49 91.5331 33.49C90.8431 33.49 90.2631 34.07 90.2631 35.01ZM98.1548 37.02V37.91C97.8448 38.05 97.5748 38.1 97.2548 38.1C96.2748 38.1 95.5948 37.57 95.5948 36.4V33.56H94.4248V32.7H95.5948V31.13H96.6048V32.7H98.2048V33.56H96.6048V36.17C96.6048 36.9 96.9548 37.16 97.4948 37.16C97.7348 37.16 97.9448 37.12 98.1548 37.02ZM102.529 38V37.18C102.199 37.77 101.609 38.1 100.829 38.1C99.7288 38.1 99.0088 37.47 99.0088 36.5C99.0088 35.46 99.8388 34.92 101.419 34.92C101.729 34.92 101.979 34.93 102.409 34.98V34.59C102.409 33.83 101.999 33.4 101.299 33.4C100.559 33.4 100.109 33.84 100.079 34.58H99.1588C99.2088 33.39 100.059 32.6 101.299 32.6C102.609 32.6 103.369 33.34 103.369 34.6V38H102.529ZM99.9688 36.47C99.9688 37.02 100.379 37.38 101.029 37.38C101.879 37.38 102.409 36.85 102.409 36.04V35.61C102.019 35.56 101.739 35.55 101.479 35.55C100.469 35.55 99.9688 35.85 99.9688 36.47Z" fill="#B0B0B0"/>
<defs>
<linearGradient id="paint0_linear_174_6962" x1="5" y1="17" x2="25.5" y2="36" gradientUnits="userSpaceOnUse">
<stop stop-color="#F28548"/>
<stop offset="1" stop-color="#F0636F"/>
</linearGradient>
</defs>
</svg>
